<svg width="159" height="27" viewBox="0 0 159 27" fill="none" xmlns="http://www.w3.org/2000/svg">
<path fill-rule="evenodd" clip-rule="evenodd" d="M117.02 1.48593L113.728 19.7527H118.937L119.83 14.7373C121.237 15.2969 121.716 16.4095 122.485 18.2687C122.772 18.949 123.601 20.0637 125.614 20.0637C126.829 20.0637 128.076 19.9085 129.033 19.63L129.577 16.6907C129.225 16.812 128.905 16.8744 128.587 16.8744C127.551 16.8744 127.27 16.287 127.026 15.7759L126.989 15.6987C126.542 14.801 126.158 14.0895 125.327 13.5941C128.202 12.4789 130.566 10.5574 130.791 7.3693H125.424C125.263 9.72117 123.698 10.9306 120.472 11.2396L122.515 0L117.02 1.48593ZM0.0812315 14.4913C0.432925 12.51 1.96628 10.7754 4.01213 10.0017C2.76683 9.2889 1.83902 8.02042 2.22287 6.00736C2.76683 3.15884 5.51333 0.866619 10.9454 0.866619C13.9132 0.866619 15.415 1.04403 17.6898 1.31276L17.8479 1.33142L17.0802 5.54123C16.7653 5.50873 16.4641 5.47676 16.172 5.44576C14.2413 5.24083 12.7046 5.07775 10.1777 5.07775C8.35699 5.07775 7.43191 5.57372 7.26974 6.50399C7.11101 7.46279 7.81371 7.9886 9.63583 7.9886H15.7385L14.9715 12.1984H8.83663C6.95089 12.1984 5.60844 12.6944 5.3539 13.996C5.09869 15.3579 6.27967 15.8525 8.16609 15.8525C11.4565 15.8525 13.566 15.6676 15.7385 15.3897L14.9715 19.6002C14.5413 19.635 14.096 19.678 13.6232 19.7239L13.6222 19.7239C12.024 19.8786 10.1104 20.0637 7.39975 20.0637C1.67891 20.0637 -0.460679 17.5559 0.0812315 14.4913ZM29.7337 8.23589C28.7429 7.49392 27.3683 7.05962 25.6755 7.05962C20.9468 7.05962 18.0074 9.69201 17.3033 13.5636C16.5999 17.4319 18.5821 20.0636 23.3101 20.0636C24.8757 20.0636 26.3153 19.691 27.4969 19.0412C28.073 19.691 29.094 20.0636 30.4363 20.0636C31.6181 20.0636 32.8319 19.8183 34.0477 19.3827L34.5896 16.3796C34.2387 16.5023 33.9205 16.5659 33.5996 16.5659C32.7375 16.5659 32.4172 16.1947 32.576 15.2968L34.0779 7.05962L29.7337 8.23589ZM22.4809 13.5636C22.7682 11.9829 23.822 10.7754 25.9643 10.7754C26.9544 10.7754 27.6249 11.0533 28.1045 11.4869L27.3368 15.6987C26.6992 16.1012 25.8356 16.3485 24.8442 16.3485C22.704 16.3485 22.1921 15.1411 22.4809 13.5636ZM36.6916 11.0844C36.1655 13.8905 38.7711 14.5179 41.2008 15.1029L41.2023 15.1033C41.4264 15.1573 41.6488 15.2108 41.8671 15.2657C42.89 15.513 43.2103 15.7298 43.146 16.1323C43.0816 16.5023 42.6348 16.812 41.4833 16.812C39.9191 16.812 37.8096 16.3186 36.0526 15.7597L35.4778 19.0412C36.9468 19.5079 38.9277 20.0636 41.3573 20.0636C45.4778 20.0636 48.3228 18.7322 48.8332 15.9155C49.3123 13.2858 46.5014 12.447 43.497 11.7972C42.6656 11.6115 42.251 11.3947 42.3461 11.0227C42.4426 10.5891 42.8572 10.3418 43.9766 10.3418C45.1268 10.3418 46.9147 10.6196 48.5138 10.9922L49.1213 7.77175C47.9376 7.49392 46.0525 7.05962 43.9452 7.05962C40.3016 7.05962 37.1384 8.6702 36.6916 11.0844ZM57.3957 13.2527L61.3902 7.36931H67.0139L57.5558 20.7454C54.4247 25.1726 51.3587 27 48.0991 27C45.8945 27 44.3611 26.4742 43.2109 25.5744L44.5828 22.2618C45.254 22.8187 46.5321 23.2524 47.4271 23.2524C49.9506 23.2524 51.486 22.5416 53.9458 18.2687L50.2085 7.36931H55.4162L57.3957 13.2527ZM70.318 1.17691L66.9626 19.7527H76.197C81.2754 19.7527 84.249 17.3703 84.7916 14.4594C85.1741 12.447 84.249 10.6196 81.8214 9.75366C83.4191 8.85587 84.2812 7.49393 84.5685 6.06901C85.079 3.37564 83.1617 1.17691 78.3701 1.17691H70.318ZM77.4416 5.04792H74.7902L74.2175 8.1756H76.8346C78.2421 8.1756 79.0715 7.58547 79.2637 6.59485C79.4539 5.6354 78.8484 5.04792 77.4416 5.04792ZM73.5435 11.9524H77.4101C79.1344 11.9524 79.9014 12.7574 79.6475 13.9018C79.3916 15.0794 78.3379 15.8526 76.6109 15.8526H72.8415L73.5435 11.9524ZM85.1125 19.7527L87.2213 8.08276L92.6506 6.59485L92.2989 8.60858C93.9612 7.61664 96.4864 6.90649 97.6046 6.90649L96.8068 11.4266C95.4945 11.4266 93.1003 11.7038 91.5983 12.4471L90.2873 19.7527H85.1125ZM97.2953 13.5636C96.5932 17.4319 98.9559 20.0636 104.167 20.0636C109.374 20.0636 112.696 17.4319 113.399 13.5636C114.102 9.69201 111.737 7.05962 106.528 7.05962C101.322 7.05962 97.9965 9.69201 97.2953 13.5636ZM105.891 10.7754C103.749 10.7754 102.792 12.0141 102.473 13.5636C102.154 15.1411 102.631 16.3485 104.773 16.3485C106.915 16.3485 107.903 15.1411 108.223 13.5636C108.544 12.0141 108.032 10.7754 105.891 10.7754ZM138.004 20.0637C132.667 20.0637 130.077 17.3704 130.78 13.5636C131.548 9.38241 135.32 7.05967 140.621 7.05967C144.616 7.05967 146.725 8.82474 146.725 10.6521C146.725 12.7574 144.295 14.8633 139.185 14.8633C137.807 14.8633 136.659 14.6783 135.798 14.4595C135.636 16.3485 137.075 16.8432 139.47 16.8432C141.676 16.8432 143.018 16.4095 145.062 15.6065L144.52 18.7322C142.795 19.445 141.164 20.0637 138.004 20.0637ZM136.596 11.8589C137.205 10.7449 138.515 10.0939 140.047 10.0939C141.261 10.0939 141.995 10.5573 141.995 11.1169C141.995 11.7038 141.355 12.1685 139.694 12.1685C138.418 12.1685 137.395 12.0459 136.596 11.8589ZM146.509 19.7528L148.617 8.08277L154.047 6.59486L153.697 8.60858C155.357 7.61664 157.883 6.90649 159 6.90649L158.202 11.4266C156.892 11.4266 154.494 11.7038 152.993 12.4471L151.684 19.7528H146.509Z" fill="#3657FF"/>
</svg>
