<svg width="167" height="41" viewBox="0 0 167 41" fill="none" xmlns="http://www.w3.org/2000/svg">
<g clip-path="url(#clip0_584_1501)">
<path opacity="0.987" fill-rule="evenodd" clip-rule="evenodd" d="M17.0076 -0.0759277C19.1112 -0.0759277 21.2147 -0.0759277 23.3182 -0.0759277C25.4049 3.58499 27.534 7.22944 29.7058 10.8574C29.8611 11.089 29.9381 11.3421 29.9367 11.6167C27.6787 11.5914 25.4212 11.6167 23.1643 11.6926C21.0206 11.7759 19.2505 12.6111 17.8542 14.1981C17.7828 14.2884 17.7571 14.3896 17.7772 14.5019C17.6065 14.5105 17.4526 14.5611 17.3155 14.6537C15.0846 14.4774 12.8271 14.4521 10.5431 14.5778C9.05564 14.9326 7.79866 15.6666 6.77216 16.7796C5.63333 18.5625 4.55591 20.3847 3.5399 22.2463C3.15511 22.7272 2.77032 23.208 2.38552 23.6889C2.05631 23.9021 1.69718 24.0286 1.3081 24.0685C0.782266 23.9859 0.320515 23.7833 -0.0771484 23.4611C-0.0771484 22.8537 -0.0771484 22.2463 -0.0771484 21.6389C0.155075 20.929 0.437256 20.2204 0.769395 19.513C3.74512 14.4512 6.72086 9.3895 9.69658 4.32778C11.5958 1.98649 14.0328 0.518586 17.0076 -0.0759277Z" fill="#002EEA"/>
<path opacity="0.985" fill-rule="evenodd" clip-rule="evenodd" d="M41.481 5.99808C42.9545 5.89902 44.391 6.07617 45.7907 6.52957C45.8768 6.63961 45.928 6.76617 45.9446 6.9092C45.7193 7.81815 45.5141 8.72926 45.329 9.64253C44.0993 9.16066 42.868 9.13534 41.635 9.5666C41.0581 10.0723 40.8015 10.705 40.8654 11.4648C42.3533 11.4648 43.8411 11.4648 45.329 11.4648C45.329 12.5277 45.329 13.5907 45.329 14.6536C43.8411 14.6536 42.3533 14.6536 40.8654 14.6536C40.8654 18.1462 40.8654 21.6388 40.8654 25.1314C39.5828 25.1314 38.3 25.1314 37.0175 25.1314C36.9917 20.12 37.0175 15.1089 37.0944 10.0981C37.5917 7.70897 39.0539 6.3423 41.481 5.99808Z" fill="#000F51"/>
<path opacity="0.966" fill-rule="evenodd" clip-rule="evenodd" d="M74.111 7.5166C74.4188 7.5166 74.7267 7.5166 75.0345 7.5166C75.0345 8.83266 75.0345 10.1487 75.0345 11.4647C76.5224 11.4647 78.0102 11.4647 79.4981 11.4647C79.4981 12.5277 79.4981 13.5907 79.4981 14.6536C78.0102 14.6536 76.5224 14.6536 75.0345 14.6536C74.9691 16.6875 75.046 18.7122 75.2654 20.7277C75.3977 21.2633 75.7313 21.5922 76.2658 21.7147C77.3574 21.8677 78.4093 21.7412 79.4211 21.3351C79.5924 22.2731 79.7719 23.2094 79.9598 24.1444C79.9086 24.2709 79.8572 24.3975 79.8059 24.524C77.8335 25.2373 75.8325 25.3132 73.8032 24.7518C72.1625 23.9228 71.316 22.5815 71.2635 20.7277C71.1609 16.5264 71.1609 12.3252 71.2635 8.12401C72.2289 7.928 73.1781 7.72553 74.111 7.5166Z" fill="#000F52"/>
<path opacity="0.972" fill-rule="evenodd" clip-rule="evenodd" d="M64.7217 11.4649C66.2972 11.3571 67.8363 11.5342 69.3392 11.9964C69.4956 12.0753 69.5981 12.2018 69.647 12.376C69.4348 13.3669 69.1526 14.3287 68.8005 15.2612C67.3991 14.6966 65.9881 14.6713 64.5678 15.1853C63.5695 16.012 63.1077 17.0749 63.1825 18.3742C63.1217 20.6679 64.2505 21.8574 66.5687 21.9427C67.5027 21.873 68.4004 21.6704 69.2622 21.3353C69.5414 22.3272 69.7723 23.3396 69.9549 24.3723C68.7814 24.9835 67.5244 25.2367 66.1839 25.1316C61.6016 25.0651 59.2672 22.7619 59.1807 18.2223C59.3811 14.6118 61.2281 12.3594 64.7217 11.4649Z" fill="#000F51"/>
<path opacity="0.985" fill-rule="evenodd" clip-rule="evenodd" d="M81.1913 11.4648C82.4739 11.4648 83.7567 11.4648 85.0393 11.4648C84.9788 14.4057 85.0557 17.3415 85.2701 20.2723C85.5749 21.4084 86.3189 21.9145 87.5019 21.7908C87.9004 21.7867 88.2852 21.736 88.6563 21.6389C88.7333 18.2479 88.759 14.8566 88.7333 11.4648C90.0159 11.4648 91.2986 11.4648 92.5812 11.4648C92.5812 15.818 92.5812 20.171 92.5812 24.5241C90.2001 25.074 87.7887 25.2512 85.3471 25.0556C83.0523 24.6545 81.744 23.3132 81.4222 21.0315C81.2107 17.8469 81.1338 14.658 81.1913 11.4648Z" fill="#000F51"/>
<path opacity="0.963" fill-rule="evenodd" clip-rule="evenodd" d="M98.1218 11.4647C99.7312 11.3872 101.322 11.5137 102.893 11.8443C103.036 11.9032 103.139 12.0045 103.201 12.148C102.993 13.1999 102.737 14.2376 102.431 15.261C101.124 14.8077 99.7904 14.7064 98.4296 14.9573C98.4296 18.3486 98.4296 21.7401 98.4296 25.1314C97.1471 25.1314 95.8643 25.1314 94.5817 25.1314C94.5305 20.8783 94.5817 16.6265 94.7356 12.3758C95.8698 12.0205 96.9987 11.7168 98.1218 11.4647Z" fill="#000F52"/>
<path opacity="0.977" fill-rule="evenodd" clip-rule="evenodd" d="M108.588 11.4649C109.951 11.4431 111.285 11.6203 112.59 11.9964C114.231 12.8271 115.078 14.1685 115.13 16.0205C115.258 18.8565 115.232 21.6909 115.053 24.5242C112.623 25.0897 110.16 25.2667 107.665 25.0557C104.653 24.559 103.396 22.8127 103.894 19.8168C104.518 17.9748 105.826 16.9878 107.819 16.8557C109.055 16.7439 110.287 16.7693 111.513 16.9316C111.369 15.3734 110.497 14.6142 108.896 14.6538C107.791 14.7242 106.713 14.9267 105.664 15.2612C105.557 15.1815 105.48 15.0802 105.433 14.9575C105.271 13.9988 105.143 13.037 105.048 12.0723C106.239 11.8176 107.419 11.6151 108.588 11.4649ZM108.896 19.3612C109.727 19.3179 110.548 19.3687 111.359 19.5131C111.512 20.3677 111.563 21.2281 111.513 22.0946C110.747 22.2346 109.978 22.2598 109.204 22.1705C107.625 21.8897 107.266 21.0797 108.127 19.7409C108.406 19.6259 108.662 19.4994 108.896 19.3612Z" fill="#000F52"/>
<path opacity="0.956" fill-rule="evenodd" clip-rule="evenodd" d="M128.136 11.4647C129.903 11.2893 131.596 11.5424 133.215 12.224C132.938 13.2463 132.63 14.2586 132.291 15.261C130.859 14.6993 129.423 14.674 127.982 15.1851C126.513 16.7862 126.23 18.5833 127.135 20.5759C127.84 21.4927 128.789 21.9483 129.983 21.9425C130.936 21.8661 131.86 21.6636 132.753 21.3351C133.008 22.2848 133.213 23.2465 133.369 24.2203C133.352 24.3633 133.301 24.4898 133.215 24.5999C131.239 25.171 129.238 25.2723 127.212 24.9036C124.047 23.8785 122.559 21.7018 122.748 18.374C122.735 14.67 124.531 12.3669 128.136 11.4647Z" fill="#FF6500"/>
<path opacity="0.963" fill-rule="evenodd" clip-rule="evenodd" d="M139.833 11.4648C143.876 11.0647 146.415 12.7857 147.452 16.6278C147.917 19.0943 147.404 21.3215 145.913 23.3092C144.145 24.9163 142.067 25.4985 139.68 25.0555C137.011 24.4238 135.395 22.7788 134.831 20.1204C134.189 17.158 134.985 14.6525 137.217 12.6037C138.044 12.0885 138.916 11.7088 139.833 11.4648ZM140.295 14.8055C142.278 14.5595 143.381 15.4199 143.604 17.387C143.772 18.5457 143.618 19.6592 143.143 20.7278C141.809 22.3476 140.475 22.3476 139.141 20.7278C138.343 18.896 138.446 17.1243 139.449 15.413C139.759 15.2312 140.041 15.0288 140.295 14.8055Z" fill="#FF6500"/>
<path opacity="0.968" fill-rule="evenodd" clip-rule="evenodd" d="M166.923 15.4131C166.923 18.6525 166.923 21.8921 166.923 25.1316C165.691 25.1316 164.46 25.1316 163.229 25.1316C163.287 22.1911 163.21 19.2552 162.998 16.3242C162.425 14.7634 161.374 14.3838 159.842 15.1853C159.753 15.3209 159.702 15.4728 159.689 15.6409C159.838 18.8009 159.89 21.9646 159.842 25.1316C158.56 25.1316 157.277 25.1316 155.995 25.1316C156.021 22.2965 155.995 19.4621 155.918 16.6279C155.564 14.982 154.563 14.4252 152.916 14.9575C152.762 18.3473 152.711 21.7388 152.762 25.1316C151.48 25.1316 150.197 25.1316 148.914 25.1316C148.864 20.7926 148.915 16.4648 149.068 12.1483C151.451 11.4772 153.862 11.3254 156.302 11.6927C156.926 11.9114 157.515 12.1898 158.072 12.5279C160.29 11.2737 162.573 11.1472 164.922 12.1483C166.004 12.9942 166.672 14.0825 166.923 15.4131Z" fill="#FF6500"/>
<path opacity="0.975" fill-rule="evenodd" clip-rule="evenodd" d="M51.3311 11.4648C53.0661 11.3655 54.7079 11.6945 56.2565 12.4518C57.1778 13.232 57.7165 14.2191 57.8726 15.4129C58.0008 18.4512 57.9751 21.4882 57.7956 24.524C54.9362 25.2192 52.063 25.2951 49.1763 24.7518C47.4205 24.0549 46.5483 22.7642 46.5597 20.8796C46.6754 18.8022 47.7528 17.5115 49.7919 17.0073C51.2275 16.7474 52.6642 16.722 54.1016 16.9314C54.3373 15.9539 53.978 15.2706 53.0242 14.8814C51.4572 14.6228 49.918 14.7494 48.4067 15.261C48.1444 14.2094 47.9392 13.1465 47.791 12.0722C48.9879 11.8502 50.168 11.6477 51.3311 11.4648ZM51.7929 19.361C52.5725 19.3184 53.342 19.3689 54.1016 19.5129C54.2548 20.3675 54.3062 21.2279 54.2555 22.0944C53.1512 22.3519 52.0738 22.276 51.0233 21.8666C50.0881 20.6963 50.3447 19.8611 51.7929 19.361Z" fill="#000F51"/>
<path opacity="0.996" fill-rule="evenodd" clip-rule="evenodd" d="M17.3155 14.6536C14.0099 20.3651 10.7007 26.0849 7.38783 31.8129C6.60852 33.3951 6.68547 34.9136 7.6187 36.3685C6.50545 36.4608 5.71023 36.0052 5.23299 35.0018C3.9892 32.8004 2.70656 30.6238 1.38506 28.4722C0.717618 27.3608 0.230213 26.1965 -0.0771484 24.9796C-0.0771484 24.4734 -0.0771484 23.9672 -0.0771484 23.4611C0.320515 23.7833 0.782266 23.9859 1.30811 24.0685C1.69718 24.0285 2.05631 23.902 2.38552 23.6888C2.77032 23.2079 3.15511 22.7272 3.5399 22.2462C4.55591 20.3847 5.63333 18.5625 6.77216 16.7796C7.79866 15.6665 9.05564 14.9325 10.5431 14.5777C12.8271 14.452 15.0846 14.4774 17.3155 14.6536Z" fill="#011052"/>
<path opacity="0.982" fill-rule="evenodd" clip-rule="evenodd" d="M17.7778 14.5018C18.3611 14.4105 18.8484 14.5624 19.24 14.9573C21.2534 18.4748 23.3056 21.9674 25.3967 25.4351C25.552 25.6667 25.629 25.9198 25.6276 26.1943C22.9079 26.169 20.1888 26.1943 17.47 26.2703C15.8511 26.5517 14.5427 27.3361 13.5451 28.624C12.1722 30.877 10.8383 33.1548 9.54324 35.4573C9.08016 36.1244 8.43884 36.4281 7.61927 36.3684C6.68604 34.9135 6.60909 33.395 7.3884 31.8129C10.7013 26.0849 14.0105 20.3651 17.316 14.6536C17.4532 14.561 17.6071 14.5104 17.7778 14.5018Z" fill="#FE6500"/>
<path opacity="0.942" fill-rule="evenodd" clip-rule="evenodd" d="M118.747 20.576C121.258 20.3955 122.259 21.5091 121.748 23.9168C121.05 25.032 120.049 25.4116 118.747 25.0556C117.255 24.3395 116.819 23.2006 117.438 21.639C117.78 21.1565 118.216 20.8021 118.747 20.576Z" fill="#FF6500"/>
<path opacity="0.923" fill-rule="evenodd" clip-rule="evenodd" d="M105.818 29.5351C113.453 28.26 116.634 31.3983 115.361 38.9499C114.899 38.9499 114.438 38.9499 113.976 38.9499C114.029 37.0706 113.952 35.1978 113.745 33.3314C113.309 32.2938 112.565 31.5597 111.513 31.1295C110.129 31.0536 108.744 31.0284 107.358 31.0536C107.358 33.6857 107.358 36.3179 107.358 38.9499C106.845 38.9499 106.331 38.9499 105.818 38.9499C105.818 35.8116 105.818 32.6734 105.818 29.5351Z" fill="#000F51"/>
<path opacity="0.932" fill-rule="evenodd" clip-rule="evenodd" d="M116.284 29.5352C119.414 29.5352 122.544 29.5352 125.673 29.5352C125.673 30.0413 125.673 30.5476 125.673 31.0537C123.005 31.0537 120.337 31.0537 117.669 31.0537C117.669 31.8635 117.669 32.6735 117.669 33.4833C120.337 33.4833 123.005 33.4833 125.673 33.4833C125.673 33.9894 125.673 34.4957 125.673 35.0018C123.005 35.0018 120.337 35.0018 117.669 35.0018C117.669 35.8624 117.669 36.7228 117.669 37.5833C120.337 37.5833 123.005 37.5833 125.673 37.5833C125.673 38.0389 125.673 38.4944 125.673 38.95C122.544 38.95 119.414 38.95 116.284 38.95C116.284 35.8116 116.284 32.6735 116.284 29.5352Z" fill="#001052"/>
<path opacity="0.948" fill-rule="evenodd" clip-rule="evenodd" d="M126.751 29.5352C127.213 29.5352 127.674 29.5352 128.136 29.5352C128.111 31.3074 128.136 33.0791 128.213 34.85C128.52 36.0639 129.264 36.8991 130.445 37.3555C131.871 37.566 133.308 37.6419 134.755 37.5833C134.755 34.9005 134.755 32.2179 134.755 29.5352C135.216 29.5352 135.678 29.5352 136.14 29.5352C136.14 32.6735 136.14 35.8116 136.14 38.95C128.469 40.24 125.339 37.1018 126.751 29.5352Z" fill="#000F52"/>
<path opacity="0.935" fill-rule="evenodd" clip-rule="evenodd" d="M137.063 29.5351C139.578 29.5098 142.092 29.5351 144.605 29.6111C146.411 30.3453 147.001 31.636 146.375 33.4833C146.196 33.7616 146.016 34.0401 145.837 34.3185C147.133 36.2232 146.774 37.7417 144.759 38.874C142.195 38.95 139.629 38.9753 137.063 38.95C137.063 35.8116 137.063 32.6735 137.063 29.5351ZM138.603 31.0537C140.502 31.0283 142.4 31.0537 144.298 31.1296C145.073 31.5871 145.252 32.2199 144.836 33.0277C144.697 33.2101 144.518 33.3368 144.298 33.4074C142.4 33.4833 140.502 33.5087 138.603 33.4833C138.603 32.6735 138.603 31.8635 138.603 31.0537ZM138.603 35.0018C140.502 34.9765 142.4 35.0018 144.298 35.0777C145.025 35.4475 145.256 36.0297 144.99 36.824C144.811 37.0012 144.631 37.1783 144.451 37.3555C142.503 37.4314 140.553 37.4568 138.603 37.4314C138.603 36.6216 138.603 35.8116 138.603 35.0018Z" fill="#000F51"/>
<path opacity="0.932" fill-rule="evenodd" clip-rule="evenodd" d="M151.223 29.5352C154.178 29.1896 156.102 30.4044 156.995 33.1796C157.252 37.1279 155.379 39.0261 151.377 38.8741C148.614 38.1053 147.357 36.3084 147.606 33.4833C147.985 31.4144 149.191 30.0984 151.223 29.5352ZM151.993 30.9019C154.648 31.1292 155.802 32.5464 155.456 35.1537C154.374 37.3656 152.706 37.9476 150.454 36.9C148.57 35.0319 148.621 33.2097 150.607 31.4333C151.08 31.2365 151.542 31.0595 151.993 30.9019Z" fill="#000F51"/>
<path opacity="0.926" fill-rule="evenodd" clip-rule="evenodd" d="M166.923 30.5982C166.923 30.75 166.923 30.9019 166.923 31.0537C165.742 32.1683 164.562 33.2818 163.383 34.3945C164.562 35.5071 165.742 36.6206 166.923 37.7352C166.923 37.8871 166.923 38.0389 166.923 38.1908C166.646 38.3871 166.39 38.6149 166.153 38.8741C166.05 38.9754 165.948 38.9754 165.845 38.8741C164.592 37.7906 163.387 36.6517 162.228 35.4574C161.069 36.6517 159.864 37.7906 158.611 38.8741C158.133 38.7124 157.723 38.4087 157.38 37.963C158.591 36.7418 159.823 35.5523 161.074 34.3945C159.823 33.2366 158.591 32.0471 157.38 30.8259C157.688 30.5222 157.996 30.2185 158.303 29.9148C158.457 29.8135 158.611 29.8135 158.765 29.9148C159.92 31.0537 161.074 32.1926 162.228 33.3315C163.383 32.1926 164.537 31.0537 165.691 29.9148C165.845 29.8135 165.999 29.8135 166.153 29.9148C166.39 30.174 166.646 30.4018 166.923 30.5982Z" fill="#000F51"/>
<path opacity="0.89" fill-rule="evenodd" clip-rule="evenodd" d="M95.5059 32.7241C95.7624 32.7241 96.0189 32.7241 96.2754 32.7241C96.2499 33.4851 96.2756 34.2443 96.3524 35.0019C97.1695 34.4208 98.0161 34.3954 98.892 34.926C99.6801 36.1479 99.7058 37.3879 98.969 38.6463C98.0967 39.2538 97.2247 39.2538 96.3524 38.6463C96.1699 38.9769 95.8877 39.1288 95.5059 39.1019C95.5059 36.976 95.5059 34.85 95.5059 32.7241ZM96.8911 35.3056C97.3047 35.2807 97.7152 35.3061 98.1224 35.3815C98.3073 35.5187 98.4357 35.6957 98.5072 35.913C98.6099 36.5204 98.6099 37.1278 98.5072 37.7352C97.9131 38.66 97.2462 38.7106 96.5063 37.8871C96.1365 36.9397 96.2647 36.0791 96.8911 35.3056Z" fill="#000F51"/>
<path opacity="0.875" fill-rule="evenodd" clip-rule="evenodd" d="M101.201 40.9241C100.739 40.9241 100.277 40.9241 99.8154 40.9241C99.8154 40.7216 99.8154 40.5191 99.8154 40.3167C100.749 40.3845 101.314 39.9543 101.509 39.0259C100.867 37.5567 100.303 36.0634 99.8154 34.5463C100.118 34.51 100.4 34.5606 100.662 34.6981C101.103 35.7493 101.513 36.8122 101.893 37.887C102.332 36.8411 102.743 35.7781 103.125 34.6981C103.386 34.5606 103.668 34.51 103.971 34.5463C103.396 36.5768 102.652 38.5509 101.739 40.4685C101.563 40.641 101.384 40.7929 101.201 40.9241Z" fill="#000F51"/>
</g>
<defs>
<clipPath id="clip0_584_1501">
<rect width="167" height="41" fill="white"/>
</clipPath>
</defs>
</svg>
