<svg width="32" height="32" viewBox="0 0 32 32" fill="none" xmlns="http://www.w3.org/2000/svg">
<path d="M12.8951 5.51471C12.9685 4.74183 13.3275 4.0241 13.9019 3.50175C14.4762 2.97939 15.2247 2.68994 16.0011 2.68994C16.7774 2.68994 17.5259 2.97939 18.1003 3.50175C18.6746 4.0241 19.0336 4.74183 19.1071 5.51471C19.1512 6.01398 19.315 6.49526 19.5846 6.91783C19.8541 7.34039 20.2216 7.69178 20.6557 7.94227C21.0898 8.19277 21.5779 8.33497 22.0787 8.35687C22.5794 8.37876 23.0781 8.27969 23.5324 8.06804C24.2379 7.74774 25.0373 7.7014 25.7751 7.93802C26.5128 8.17464 27.1362 8.67731 27.5238 9.34818C27.9113 10.0191 28.0355 10.8101 27.8719 11.5675C27.7084 12.3248 27.2689 12.9942 26.6391 13.4454C26.2289 13.7332 25.8941 14.1155 25.663 14.5601C25.4318 15.0046 25.3111 15.4983 25.3111 15.9994C25.3111 16.5004 25.4318 16.9941 25.663 17.4387C25.8941 17.8832 26.2289 18.2656 26.6391 18.5534C27.2689 19.0046 27.7084 19.6739 27.8719 20.4313C28.0355 21.1886 27.9113 21.9797 27.5238 22.6506C27.1362 23.3214 26.5128 23.8241 25.7751 24.0607C25.0373 24.2973 24.2379 24.251 23.5324 23.9307C23.0781 23.7191 22.5794 23.62 22.0787 23.6419C21.5779 23.6638 21.0898 23.806 20.6557 24.0565C20.2216 24.307 19.8541 24.6584 19.5846 25.0809C19.315 25.5035 19.1512 25.9848 19.1071 26.484C19.0336 27.2569 18.6746 27.9746 18.1003 28.497C17.5259 29.0194 16.7774 29.3088 16.0011 29.3088C15.2247 29.3088 14.4762 29.0194 13.9019 28.497C13.3275 27.9746 12.9685 27.2569 12.8951 26.484C12.851 25.9846 12.6872 25.5031 12.4176 25.0804C12.1479 24.6577 11.7804 24.3062 11.346 24.0557C10.9117 23.8051 10.4234 23.663 9.92251 23.6412C9.42159 23.6195 8.92281 23.7188 8.46841 23.9307C7.76293 24.251 6.96351 24.2973 6.22574 24.0607C5.48797 23.8241 4.86464 23.3214 4.47705 22.6506C4.08946 21.9797 3.96536 21.1886 4.12889 20.4313C4.29241 19.6739 4.73187 19.0046 5.36174 18.5534C5.7719 18.2656 6.10671 17.8832 6.33786 17.4387C6.569 16.9941 6.68968 16.5004 6.68968 15.9994C6.68968 15.4983 6.569 15.0046 6.33786 14.5601C6.10671 14.1155 5.7719 13.7332 5.36174 13.4454C4.73276 12.994 4.29407 12.3248 4.13094 11.568C3.96781 10.8112 4.09188 10.0208 4.47905 9.35032C4.86622 8.67989 5.48882 8.17734 6.22586 7.94036C6.9629 7.70338 7.76172 7.74888 8.46707 8.06804C8.92142 8.27969 9.42006 8.37876 9.92081 8.35687C10.4216 8.33497 10.9096 8.19277 11.3438 7.94227C11.7779 7.69178 12.1453 7.34039 12.4149 6.91783C12.6845 6.49526 12.8483 6.01398 12.8924 5.51471M20.0004 16C20.0004 18.2092 18.2095 20 16.0004 20C13.7913 20 12.0004 18.2092 12.0004 16C12.0004 13.7909 13.7913 12 16.0004 12C18.2095 12 20.0004 13.7909 20.0004 16Z" stroke="#0A120F" stroke-width="2" stroke-linecap="round" stroke-linejoin="round"/>
</svg>
