<svg width="32" height="32" viewBox="0 0 32 32" fill="none" xmlns="http://www.w3.org/2000/svg">
<path d="M21.3337 10.6667H13.3337C12.6264 10.6667 11.9481 10.9476 11.448 11.4477C10.9479 11.9478 10.667 12.6261 10.667 13.3334C10.667 14.0406 10.9479 14.7189 11.448 15.219C11.9481 15.7191 12.6264 16 13.3337 16H18.667C19.3742 16 20.0525 16.281 20.5526 16.7811C21.0527 17.2812 21.3337 17.9594 21.3337 18.6667C21.3337 19.3739 21.0527 20.0522 20.5526 20.5523C20.0525 21.0524 19.3742 21.3334 18.667 21.3334H10.667M16.0003 24V8.00002M29.3337 16C29.3337 23.3638 23.3641 29.3334 16.0003 29.3334C8.63653 29.3334 2.66699 23.3638 2.66699 16C2.66699 8.63622 8.63653 2.66669 16.0003 2.66669C23.3641 2.66669 29.3337 8.63622 29.3337 16Z" stroke="#0A120F" stroke-width="2" stroke-linecap="round" stroke-linejoin="round"/>
</svg>
