<svg width="32" height="32" viewBox="0 0 32 32" fill="none" xmlns="http://www.w3.org/2000/svg">
<path d="M18.6663 2.66669H7.99967C7.29243 2.66669 6.61415 2.94764 6.11406 3.44774C5.61396 3.94784 5.33301 4.62611 5.33301 5.33336V26.6667C5.33301 27.3739 5.61396 28.0522 6.11406 28.5523C6.61415 29.0524 7.29243 29.3334 7.99967 29.3334H23.9997C24.7069 29.3334 25.3852 29.0524 25.8853 28.5523C26.3854 28.0522 26.6663 27.3739 26.6663 26.6667V10.6667M18.6663 2.66669C19.0884 2.66601 19.5065 2.74883 19.8964 2.91038C20.2863 3.07194 20.6404 3.30904 20.9383 3.60802L25.7223 8.39203C26.0221 8.69003 26.2599 9.04448 26.4219 9.43491C26.584 9.82533 26.667 10.244 26.6663 10.6667M18.6663 2.66669V9.33336C18.6663 9.68698 18.8068 10.0261 19.0569 10.2762C19.3069 10.5262 19.6461 10.6667 19.9997 10.6667L26.6663 10.6667M11.9997 20L14.6663 22.6667L19.9997 17.3334" stroke="#0A120F" stroke-width="2" stroke-linecap="round" stroke-linejoin="round"/>
</svg>
