<svg width="32" height="32" viewBox="0 0 32 32" fill="none" xmlns="http://www.w3.org/2000/svg">
<path d="M28 6.66663C28 8.87576 22.6274 10.6666 16 10.6666C9.37258 10.6666 4 8.87576 4 6.66663M28 6.66663C28 4.45749 22.6274 2.66663 16 2.66663C9.37258 2.66663 4 4.45749 4 6.66663M28 6.66663V25.3333C28 26.3942 26.7357 27.4116 24.4853 28.1617C22.2348 28.9119 19.1826 29.3333 16 29.3333C12.8174 29.3333 9.76516 28.9119 7.51472 28.1617C5.26428 27.4116 4 26.3942 4 25.3333V6.66663M4 16C4 17.0608 5.26428 18.0782 7.51472 18.8284C9.76516 19.5785 12.8174 20 16 20C19.1826 20 22.2348 19.5785 24.4853 18.8284C26.7357 18.0782 28 17.0608 28 16" stroke="#0A120F" stroke-width="2" stroke-linecap="round" stroke-linejoin="round"/>
</svg>
