<svg width="106" height="40" viewBox="0 0 106 40" fill="none" xmlns="http://www.w3.org/2000/svg">
<g clip-path="url(#clip0_46_152)">
<path d="M33.4011 12.2316H25.2799V39.5389H33.4011V12.2316Z" fill="#0A1F15"/>
<path d="M44.5145 0.566589H36.3933V39.539H44.5145V0.566589Z" fill="#0A1F15"/>
<path d="M29.3377 0.149963C26.8037 0.149963 24.7499 2.21634 24.7499 4.76599C24.7499 7.31564 26.8037 9.38201 29.3377 9.38201C31.8718 9.38201 33.9255 7.31564 33.9255 4.76599C33.9255 2.21634 31.8718 0.149963 29.3377 0.149963Z" fill="#0A1F15"/>
<path d="M89.1007 11.9205C81.7856 11.9205 75.8563 17.1198 75.8563 25.8853C75.8563 34.6507 81.7856 39.85 89.1007 39.85C96.4158 39.85 102.345 34.6507 102.345 25.8853C102.345 17.1198 96.4158 11.9205 89.1007 11.9205ZM89.1007 34.1341C86.0146 34.1341 83.5192 31.3123 83.5192 25.8908C83.5192 20.4693 86.0201 17.6475 89.1007 17.6475C92.1814 17.6475 94.6823 20.4638 94.6823 25.8853C94.6823 31.3067 92.1814 34.1341 89.1007 34.1341Z" fill="#0A1F15"/>
<path d="M103.549 35.234C102.279 35.234 101.252 36.2672 101.252 37.5448C101.252 38.8224 102.279 39.8556 103.549 39.8556C104.819 39.8556 105.845 38.8224 105.845 37.5448C105.845 36.2672 104.819 35.234 103.549 35.234Z" fill="#0A1F15"/>
<path d="M15.5577 34.1341C11.9526 34.1341 7.8175 31.3123 7.8175 25.8908C7.8175 20.4694 11.9526 17.6475 15.5577 17.6475C19.7535 17.6475 22.2821 20.4194 22.2821 20.4194V14.0869C22.2821 14.0869 19.6266 11.9317 14.183 11.9317C6.86792 11.9206 0.154587 16.5921 0.154587 25.8853C0.154587 34.6507 6.34896 39.85 14.183 39.85C19.4278 39.85 22.2821 37.6947 22.2821 37.6947V31.2568C20.6203 33.6342 18.0863 34.1341 15.5577 34.1341Z" fill="#0A1F15"/>
<path d="M62.7056 34.1341C59.1723 34.1341 55.8377 32.1011 55.0648 28.5516H73.2118C74.3104 20.1361 69.96 11.9205 60.5525 11.9205C53.2374 11.9205 47.1093 17.1198 47.1093 25.8853C47.1093 34.6507 53.1712 39.85 61.5297 39.85C69.5073 39.85 72.4223 35.0395 72.4223 35.0395V30.4568C71.4451 33.1454 67.2217 34.1341 62.7056 34.1341ZM60.558 17.642C63.0424 17.642 65.2783 19.2806 66.0513 22.8301H55.0703C55.8432 19.2806 58.0737 17.642 60.558 17.642Z" fill="#0A1F15"/>
</g>
<defs>
<clipPath id="clip0_46_152">
<rect width="106" height="40" fill="white"/>
</clipPath>
</defs>
</svg>
