<svg width="32" height="60" viewBox="0 0 32 60" fill="none" xmlns="http://www.w3.org/2000/svg">
<path d="M23.9724 13.4768L1.11648 0.102331C0.620204 -0.188225 0 0.174553 0 0.755109V36.2134C0 36.6629 0.236895 37.0773 0.620752 37.3018L7.96778 41.5918V22.8423L23.9724 13.4768Z" fill="#F7FEFC"/>
<path d="M24.0325 50.9718V50.9224L23.9902 50.9468L24.0325 50.9718Z" fill="#F7FEFC"/>
<path d="M7.96777 58.9974C7.96777 59.5774 8.58743 59.9401 9.08315 59.6507L23.9894 50.9468L7.96777 41.5918V58.9974Z" fill="#F7FEFC"/>
<path d="M30.8837 9.4329L23.9727 13.4773L24.0324 13.5123V50.9229L31.3795 46.6329C31.7639 46.4085 32.0002 45.9935 32.0002 45.5446V10.0857C32.0002 9.50512 31.38 9.14234 30.8837 9.4329Z" fill="#F7FEFC"/>
</svg>
