<svg viewBox="0 0 66 25" width="{{width}}" height="{{height}}" aria-label="Cileo" fill="#000" xmlns="http://www.w3.org/2000/svg">
  <path d="M20.7006 7.55103H15.644V24.6181H20.7006V7.55103Z" />
  <path d="M27.6205 0.260376H22.564V24.6181H27.6205V0.260376Z" />
  <path d="M18.1705 0C16.5927 0 15.314 1.29149 15.314 2.88502C15.314 4.47854 16.5927 5.77003 18.1705 5.77003C19.7483 5.77003 21.0271 4.47854 21.0271 2.88502C21.0271 1.29149 19.7483 0 18.1705 0Z" />
  <path d="M55.3813 7.35663C50.8266 7.35663 47.1348 10.6062 47.1348 16.0846C47.1348 21.563 50.8266 24.8125 55.3813 24.8125C59.936 24.8125 63.6279 21.563 63.6279 16.0846C63.6279 10.6062 59.936 7.35663 55.3813 7.35663ZM55.3813 21.2401C53.4598 21.2401 51.906 19.4765 51.906 16.0881C51.906 12.6996 53.4632 10.936 55.3813 10.936C57.2995 10.936 58.8566 12.6962 58.8566 16.0846C58.8566 19.473 57.2995 21.2401 55.3813 21.2401Z" />
  <path d="M64.3773 21.9275C63.5866 21.9275 62.9473 22.5732 62.9473 23.3717C62.9473 24.1702 63.5866 24.816 64.3773 24.816C65.1679 24.816 65.8073 24.1702 65.8073 23.3717C65.8073 22.5732 65.1679 21.9275 64.3773 21.9275Z" />
  <path d="M9.59062 21.2401C7.34594 21.2401 4.77125 19.4764 4.77125 16.088C4.77125 12.6996 7.34594 10.936 9.59062 10.936C12.2031 10.936 13.7775 12.6684 13.7775 12.6684V8.71057C13.7775 8.71057 12.1241 7.36354 8.73469 7.36354C4.18 7.35659 0 10.2763 0 16.0845C0 21.563 3.85687 24.8125 8.73469 24.8125C12.0003 24.8125 13.7775 23.4655 13.7775 23.4655V19.4417C12.7428 20.9276 11.165 21.2401 9.59062 21.2401Z" />
  <path d="M38.9468 21.2401C36.7468 21.2401 34.6705 19.9695 34.1893 17.751H45.4883C46.1724 12.4913 43.4637 7.35663 37.6062 7.35663C33.0515 7.35663 29.2358 10.6062 29.2358 16.0846C29.2358 21.563 33.0102 24.8125 38.2146 24.8125C43.1818 24.8125 44.9968 21.806 44.9968 21.806V18.9418C44.3883 20.6221 41.7587 21.2401 38.9468 21.2401ZM37.6096 10.9325C39.1565 10.9325 40.5487 11.9567 41.0299 14.1751H34.1927C34.674 11.9567 36.0627 10.9325 37.6096 10.9325Z" />
</svg>
